HIERARCHY
ROOT Hips
{
	OFFSET 0.000000 0.000000 0.000000
	CHANNELS 6 Xposition Yposition Zposition Zrotation Yrotation Xrotation 
	JOINT Spine1
	{
		OFFSET -0.013727 5.003763 -0.053727
		CHANNELS 3 Zrotation Yrotation Xrotation
		JOINT Spine2
		{
			OFFSET -0.000000 7.125302 -0.029825
			CHANNELS 3 Zrotation Yrotation Xrotation
			JOINT Chest
			{
				OFFSET -0.000001 7.550063 -0.815971
				CHANNELS 3 Zrotation Yrotation Xrotation
				JOINT Neck1
				{
					OFFSET -0.181677 26.311296 -0.553349
					CHANNELS 3 Zrotation Yrotation Xrotation
					JOINT Neck2
					{
						OFFSET -0.000003 7.709400 2.302585
						CHANNELS 3 Zrotation Yrotation Xrotation
						JOINT Head
						{
							OFFSET -0.000005 6.128913 1.953708
							CHANNELS 3 Zrotation Yrotation Xrotation
							JOINT HeadEnd
							{
								OFFSET 0.003598 16.065403 -1.835379
								CHANNELS 3 Zrotation Yrotation Xrotation
								End Site
								{
									OFFSET 0.000000 0.000000 0.000000
								}
							}
							JOINT Jaw
							{
								OFFSET 0.002637 0.475591 3.094940
								CHANNELS 3 Zrotation Yrotation Xrotation
								End Site
								{
									OFFSET 0.000000 0.000000 0.000000
								}
							}
							JOINT LeftEye
							{
								OFFSET 3.206381 5.380207 7.586883
								CHANNELS 3 Zrotation Yrotation Xrotation
								End Site
								{
									OFFSET 0.000000 0.000000 0.000000
								}
							}
							JOINT RightEye
							{
								OFFSET -3.222440 5.361866 7.558233
								CHANNELS 3 Zrotation Yrotation Xrotation
								End Site
								{
									OFFSET 0.000000 0.000000 0.000000
								}
							}
						}
					}
				}
				JOINT LeftShoulder
				{
					OFFSET 1.621652 23.237164 5.113413
					CHANNELS 3 Zrotation Yrotation Xrotation
					JOINT LeftArm
					{
						OFFSET 14.919845 -0.000001 -5.502326
						CHANNELS 3 Zrotation Yrotation Xrotation
						JOINT LeftForeArm
						{
							OFFSET 28.739309 0.000004 -0.002587
							CHANNELS 3 Zrotation Yrotation Xrotation
							JOINT LeftHand
							{
								OFFSET 27.093979 -0.000003 0.002609
								CHANNELS 3 Zrotation Yrotation Xrotation
								JOINT LeftHandThumb1
								{
									OFFSET 2.276480 -1.392046 3.191413
									CHANNELS 3 Zrotation Yrotation Xrotation
									JOINT LeftHandThumb2
									{
										OFFSET 4.012841 -1.828126 1.641655
										CHANNELS 3 Zrotation Yrotation Xrotation
										JOINT LeftHandThumb3
										{
											OFFSET 2.798516 0.000001 -0.000003
											CHANNELS 3 Zrotation Yrotation Xrotation
											JOINT LeftHandThumbEnd
											{
												OFFSET 3.180791 -0.000001 0.000003
												CHANNELS 3 Zrotation Yrotation Xrotation
												End Site
												{
													OFFSET 0.000000 0.000000 0.000000
												}
											}
										}
									}
								}
								JOINT LeftHandIndex1
								{
									OFFSET 3.247552 -0.531999 2.296169
									CHANNELS 3 Zrotation Yrotation Xrotation
									JOINT LeftHandIndex2
									{
										OFFSET 6.364580 0.012063 0.178600
										CHANNELS 3 Zrotation Yrotation Xrotation
										JOINT LeftHandIndex3
										{
											OFFSET 3.662367 0.000001 0.000000
											CHANNELS 3 Zrotation Yrotation Xrotation
											JOINT LeftHandIndex4
											{
												OFFSET 2.329242 0.000000 0.000005
												CHANNELS 3 Zrotation Yrotation Xrotation
												JOINT LeftHandIndexEnd
												{
													OFFSET 2.759619 -0.180540 -0.113024
													CHANNELS 3 Zrotation Yrotation Xrotation
													End Site
													{
														OFFSET 0.000000 0.000000 0.000000
													}
												}
											}
										}
									}
								}
								JOINT LeftHandMiddle1
								{
									OFFSET 3.163499 0.240982 1.000332
									CHANNELS 3 Zrotation Yrotation Xrotation
									JOINT LeftHandMiddle2
									{
										OFFSET 6.190777 -0.259277 -1.002548
										CHANNELS 3 Zrotation Yrotation Xrotation
										JOINT LeftHandMiddle3
										{
											OFFSET 4.356523 -0.000005 0.000000
											CHANNELS 3 Zrotation Yrotation Xrotation
											JOINT LeftHandMiddle4
											{
												OFFSET 2.996875 -0.000006 0.000001
												CHANNELS 3 Zrotation Yrotation Xrotation
												JOINT LeftHandMiddleEnd
												{
													OFFSET 2.304294 -0.294571 -0.031740
													CHANNELS 3 Zrotation Yrotation Xrotation
													End Site
													{
														OFFSET 0.000000 0.000000 0.000000
													}
												}
											}
										}
									}
								}
								JOINT LeftHandRing1
								{
									OFFSET 2.882641 -0.053651 -0.322543
									CHANNELS 3 Zrotation Yrotation Xrotation
									JOINT LeftHandRing2
									{
										OFFSET 5.854543 -0.486203 -1.373841
										CHANNELS 3 Zrotation Yrotation Xrotation
										JOINT LeftHandRing3
										{
											OFFSET 4.350580 0.000000 0.000003
											CHANNELS 3 Zrotation Yrotation Xrotation
											JOINT LeftHandRing4
											{
												OFFSET 2.651324 0.000008 0.000004
												CHANNELS 3 Zrotation Yrotation Xrotation
												JOINT LeftHandRingEnd
												{
													OFFSET 1.936110 0.077686 -0.000069
													CHANNELS 3 Zrotation Yrotation Xrotation
													End Site
													{
														OFFSET 0.000000 0.000000 0.000000
													}
												}
											}
										}
									}
								}
								JOINT LeftHandPinky1
								{
									OFFSET 2.865499 -0.310004 -1.600378
									CHANNELS 3 Zrotation Yrotation Xrotation
									JOINT LeftHandPinky2
									{
										OFFSET 5.087853 -1.331143 -1.771231
										CHANNELS 3 Zrotation Yrotation Xrotation
										JOINT LeftHandPinky3
										{
											OFFSET 3.070975 0.000004 0.000000
											CHANNELS 3 Zrotation Yrotation Xrotation
											JOINT LeftHandPinky4
											{
												OFFSET 1.549667 -0.000000 0.000000
												CHANNELS 3 Zrotation Yrotation Xrotation
												JOINT LeftHandPinkyEnd
												{
													OFFSET 1.944895 -0.157801 0.057219
													CHANNELS 3 Zrotation Yrotation Xrotation
													End Site
													{
														OFFSET 0.000000 0.000000 0.000000
													}
												}
											}
										}
									}
								}
							}
						}
					}
				}
				JOINT RightShoulder
				{
					OFFSET -1.380118 23.180307 5.214157
					CHANNELS 3 Zrotation Yrotation Xrotation
					JOINT RightArm
					{
						OFFSET -15.037197 0.000011 -5.545604
						CHANNELS 3 Zrotation Yrotation Xrotation
						JOINT RightForeArm
						{
							OFFSET -28.736639 0.000003 -0.002597
							CHANNELS 3 Zrotation Yrotation Xrotation
							JOINT RightHand
							{
								OFFSET -27.133617 -0.000001 0.002612
								CHANNELS 3 Zrotation Yrotation Xrotation
								JOINT RightHandThumb1
								{
									OFFSET -2.274036 -1.383990 3.163128
									CHANNELS 3 Zrotation Yrotation Xrotation
									JOINT RightHandThumb2
									{
										OFFSET -4.011429 -1.827467 1.640915
										CHANNELS 3 Zrotation Yrotation Xrotation
										JOINT RightHandThumb3
										{
											OFFSET -2.794934 -0.000002 -0.000003
											CHANNELS 3 Zrotation Yrotation Xrotation
											JOINT RightHandThumbEnd
											{
												OFFSET -3.183855 0.000004 -0.000000
												CHANNELS 3 Zrotation Yrotation Xrotation
												End Site
												{
													OFFSET 0.000000 0.000000 0.000000
												}
											}
										}
									}
								}
								JOINT RightHandIndex1
								{
									OFFSET -3.253269 -0.520059 2.282866
									CHANNELS 3 Zrotation Yrotation Xrotation
									JOINT RightHandIndex2
									{
										OFFSET -6.341918 0.012472 0.178265
										CHANNELS 3 Zrotation Yrotation Xrotation
										JOINT RightHandIndex3
										{
											OFFSET -3.654874 -0.000009 -0.000001
											CHANNELS 3 Zrotation Yrotation Xrotation
											JOINT RightHandIndex4
											{
												OFFSET -2.327586 0.000000 0.000000
												CHANNELS 3 Zrotation Yrotation Xrotation
												JOINT RightHandIndexEnd
												{
													OFFSET -2.761789 -0.180657 -0.113078
													CHANNELS 3 Zrotation Yrotation Xrotation
													End Site
													{
														OFFSET 0.000000 0.000000 0.000000
													}
												}
											}
										}
									}
								}
								JOINT RightHandMiddle1
								{
									OFFSET -3.168106 0.246593 1.001031
									CHANNELS 3 Zrotation Yrotation Xrotation
									JOINT RightHandMiddle2
									{
										OFFSET -6.180830 -0.258837 -1.000896
										CHANNELS 3 Zrotation Yrotation Xrotation
										JOINT RightHandMiddle3
										{
											OFFSET -4.348905 0.000002 -0.000000
											CHANNELS 3 Zrotation Yrotation Xrotation
											JOINT RightHandMiddle4
											{
												OFFSET -3.000242 -0.000003 -0.000003
												CHANNELS 3 Zrotation Yrotation Xrotation
												JOINT RightHandMiddleEnd
												{
													OFFSET -2.302519 -0.294372 -0.031706
													CHANNELS 3 Zrotation Yrotation Xrotation
													End Site
													{
														OFFSET 0.000000 0.000000 0.000000
													}
												}
											}
										}
									}
								}
								JOINT RightHandRing1
								{
									OFFSET -2.885694 -0.067951 -0.308858
									CHANNELS 3 Zrotation Yrotation Xrotation
									JOINT RightHandRing2
									{
										OFFSET -5.854197 -0.486133 -1.373732
										CHANNELS 3 Zrotation Yrotation Xrotation
										JOINT RightHandRing3
										{
											OFFSET -4.338814 -0.000005 -0.000000
											CHANNELS 3 Zrotation Yrotation Xrotation
											JOINT RightHandRing4
											{
												OFFSET -2.654906 -0.000003 0.000003
												CHANNELS 3 Zrotation Yrotation Xrotation
												JOINT RightHandRingEnd
												{
													OFFSET -1.933570 0.077524 -0.000052
													CHANNELS 3 Zrotation Yrotation Xrotation
													End Site
													{
														OFFSET 0.000000 0.000000 0.000000
													}
												}
											}
										}
									}
								}
								JOINT RightHandPinky1
								{
									OFFSET -2.866429 -0.342799 -1.584145
									CHANNELS 3 Zrotation Yrotation Xrotation
									JOINT RightHandPinky2
									{
										OFFSET -5.091371 -1.332053 -1.772385
										CHANNELS 3 Zrotation Yrotation Xrotation
										JOINT RightHandPinky3
										{
											OFFSET -3.062666 -0.000006 -0.000000
											CHANNELS 3 Zrotation Yrotation Xrotation
											JOINT RightHandPinky4
											{
												OFFSET -1.546526 0.000006 -0.000002
												CHANNELS 3 Zrotation Yrotation Xrotation
												JOINT RightHandPinkyEnd
												{
													OFFSET -1.945122 -0.157722 0.057211
													CHANNELS 3 Zrotation Yrotation Xrotation
													End Site
													{
														OFFSET 0.000000 0.000000 0.000000
													}
												}
											}
										}
									}
								}
							}
						}
					}
				}
			}
		}
	}
	JOINT LeftLeg
	{
		OFFSET 10.043214 -8.434526 2.595655
		CHANNELS 3 Zrotation Yrotation Xrotation
		JOINT LeftShin
		{
			OFFSET -0.000002 -43.221752 -0.802913
			CHANNELS 3 Zrotation Yrotation Xrotation
			JOINT LeftFoot
			{
				OFFSET 0.000001 -42.155094 -3.481524
				CHANNELS 3 Zrotation Yrotation Xrotation
				JOINT LeftToeBase
				{
					OFFSET -0.000000 -5.059475 13.231529
					CHANNELS 3 Zrotation Yrotation Xrotation
					JOINT LeftToeEnd
					{
						OFFSET -0.009607 -1.647615 6.513017
						CHANNELS 3 Zrotation Yrotation Xrotation
						End Site
						{
							OFFSET 0.000000 0.000000 0.000000
						}
					}
				}
			}
		}
	}
	JOINT RightLeg
	{
		OFFSET -10.047277 -8.295259 2.620317
		CHANNELS 3 Zrotation Yrotation Xrotation
		JOINT RightShin
		{
			OFFSET 0.000000 -43.362209 -0.805555
			CHANNELS 3 Zrotation Yrotation Xrotation
			JOINT RightFoot
			{
				OFFSET 0.000002 -42.117393 -3.478398
				CHANNELS 3 Zrotation Yrotation Xrotation
				JOINT RightToeBase
				{
					OFFSET -0.000000 -5.079609 13.284196
					CHANNELS 3 Zrotation Yrotation Xrotation
					JOINT RightToeEnd
					{
						OFFSET 0.009532 -1.634383 6.460591
						CHANNELS 3 Zrotation Yrotation Xrotation
						End Site
						{
							OFFSET 0.000000 0.000000 0.000000
						}
					}
				}
			}
		}
	}
}
MOTION
Frames: 4
Frame Time: 0.033333
2.865423 92.777275 0.076895 -1.902745 -4.268108 1.306711 1.278853 0.085581 2.197743 0.138385 -0.591868 -4.024693 -0.098462 -2.517692 10.896389 6.878235 -1.431524 16.382002 -2.713833 -7.933282 -3.512888 1.670729 -10.128961 -10.210868 0.000077 -0.000022 0.000006 -0.002476 -0.000511 -0.011372 0.722225 -3.727692 -10.664961 -0.740469 3.749137 -10.679903 0.111714 -10.354432 7.619914 -54.050144 -51.747334 -4.462713 179.747025 -46.256081 179.614288 -10.864315 -5.282725 10.464344 -5.882102 9.861277 0.702589 -10.936858 -0.360575 7.156196 -0.000000 8.774812 -0.000001 -16.314846 17.812065 6.143193 -1.844031 2.498502 -2.507276 -10.163589 4.678939 4.621104 -20.975998 -0.000004 0.000002 -21.226255 2.451691 -3.593992 0.000000 -0.000006 -0.000001 -1.362682 2.240795 -0.746323 -21.334896 0.584907 3.008320 -13.821197 -0.000003 0.000002 -23.887133 -0.249079 -0.839481 -60.305416 2.373522 -1.541124 -0.294027 1.679685 0.833255 -14.218194 0.093214 1.300578 -34.212002 -0.287565 0.967169 -20.033180 0.964534 1.212842 0.000001 0.000000 0.000000 -3.440386 0.788232 0.501654 -15.928167 -3.167306 2.999702 -6.338818 -0.000002 0.000001 -18.123415 3.648174 -4.905661 -0.000004 -0.000000 -0.000002 -3.130587 17.510406 4.450935 14.415878 27.367794 -50.862160 179.772110 85.754105 -178.435928 11.990892 1.516337 8.549333 2.243539 -5.255031 -3.180155 14.282873 -0.826593 6.952496 -0.000003 -12.690592 0.000003 16.247509 -16.702047 2.029327 1.665663 -1.955919 -2.878297 4.727791 -4.170582 4.993919 11.020509 0.000003 0.000000 12.109028 -3.735710 -2.866778 0.000000 0.000000 0.000001 1.291983 -1.928546 -1.498087 14.800111 0.567468 3.865604 14.242553 -1.341734 -6.660648 19.631939 0.143925 -0.648242 49.502277 -0.862060 -6.240582 0.353029 -1.511150 -0.031940 20.222763 3.684307 2.316628 18.787243 0.000006 0.000001 10.751610 -0.479868 1.397905 0.000001 0.000002 -0.000000 3.273805 0.305944 -0.580109 21.486790 11.830363 2.266130 8.162916 0.000001 0.000001 18.399050 -3.798981 -4.940565 0.000002 0.000000 -0.000001 18.531107 19.594496 -12.814148 -0.235165 -0.683662 37.017921 -19.332607 -1.056402 -18.803499 1.610720 -2.021441 0.425064 0.000000 -0.000000 0.000002 -14.378094 -24.613060 -24.146032 0.527078 0.710728 28.669918 17.419802 13.264701 3.036778 -1.449370 0.736370 0.482586 0.000000 0.000000 -0.000001 
2.809654 92.811050 0.181123 -1.821452 -3.996453 1.192536 1.245022 0.091787 2.130425 0.132559 -0.529967 -4.062918 -0.209545 -2.534025 10.852165 6.740533 -1.325661 16.277023 -2.763299 -7.953518 -3.485458 1.653890 -10.200595 -10.262380 0.000077 -0.000023 0.000006 0.000592 -0.006490 -0.007223 0.727259 -3.745115 -10.679500 -0.738423 3.727063 -10.696078 -0.021679 -10.333733 7.601875 -54.057804 -51.626606 -4.364523 179.715714 -46.235573 179.607697 -10.900170 -5.244662 10.051948 -5.882100 9.861278 0.702590 -10.936858 -0.360575 7.156196 0.000001 8.774814 -0.000000 -16.242790 17.787781 6.181021 -1.844031 2.498502 -2.507276 -10.163589 4.678939 4.621102 -20.976002 -0.000005 0.000000 -21.226255 2.451692 -3.593994 0.000000 -0.000006 -0.000000 -1.362683 2.240797 -0.746323 -21.334892 0.584908 3.008317 -13.821198 -0.000004 0.000001 -23.887133 -0.249081 -0.839482 -60.237984 2.353470 -1.523131 -0.294026 1.679686 0.833255 -14.218195 0.093214 1.300577 -34.212006 -0.287566 0.967167 -20.033180 0.964532 1.212840 0.000000 0.000000 0.000000 -3.440384 0.788232 0.501655 -15.928167 -3.167305 2.999702 -6.338818 -0.000001 0.000000 -18.123415 3.648174 -4.905662 -0.000004 -0.000000 -0.000002 -3.094837 17.471378 4.485301 14.366833 27.484673 -50.865368 179.879608 85.905998 -178.322098 12.137454 1.236627 9.095590 2.243540 -5.255032 -3.180155 14.282878 -0.826593 6.952499 -0.000002 -12.690587 -0.000001 16.204279 -16.701958 2.036381 1.665663 -1.955920 -2.878296 4.727795 -4.170584 4.993919 11.020513 0.000003 -0.000001 12.109033 -3.735710 -2.866779 0.000000 0.000002 0.000000 1.291985 -1.928545 -1.498087 14.800117 0.567467 3.865605 14.242553 -1.341735 -6.660647 19.631939 0.143927 -0.648241 49.444580 -0.856883 -6.266890 0.353028 -1.511151 -0.031939 20.222767 3.684306 2.316630 18.787245 0.000005 0.000002 10.751610 -0.479869 1.397905 0.000001 0.000002 -0.000000 3.273803 0.305946 -0.580110 21.486794 11.830362 2.266134 8.162919 0.000003 0.000001 18.399055 -3.798980 -4.940565 0.000003 -0.000002 -0.000001 18.495512 19.401134 -12.632236 -0.226218 -0.677318 36.775967 -19.374821 -1.253869 -18.669872 1.608802 -2.033928 0.450652 0.000000 -0.000000 0.000002 -14.590241 -24.581608 -23.861702 0.520489 0.711400 28.708635 17.466810 13.099234 2.905984 -1.447780 0.742345 0.525345 0.000000 0.000000 -0.000001 
2.682069 92.863258 0.294500 -1.787250 -3.670305 1.125712 1.204038 0.103871 2.047469 0.128466 -0.482013 -4.076629 -0.293263 -2.549392 10.773128 6.647310 -1.208010 16.147446 -2.795468 -8.079073 -3.475678 1.616105 -10.249761 -10.327005 0.000077 -0.000023 0.000006 -0.000393 -0.018783 -0.000683 0.725827 -3.750513 -10.664787 -0.740055 3.726670 -10.686735 -0.130216 -10.365329 7.568172 -54.102753 -51.497227 -4.180945 179.597458 -46.212875 179.712326 -10.986192 -5.265349 9.716212 -5.882101 9.861278 0.702589 -10.936858 -0.360575 7.156196 0.000001 8.774812 -0.000001 -16.209187 17.788258 6.225155 -1.844032 2.498502 -2.507275 -10.163589 4.678938 4.621103 -20.975990 -0.000005 0.000002 -21.226250 2.451690 -3.593992 0.000000 -0.000006 -0.000000 -1.362681 2.240796 -0.746322 -21.334888 0.584907 3.008320 -13.821195 -0.000004 0.000002 -23.887129 -0.249080 -0.839481 -60.241615 2.335324 -1.525076 -0.294024 1.679686 0.833256 -14.218190 0.093214 1.300579 -34.211998 -0.287565 0.967170 -20.033176 0.964534 1.212842 0.000000 0.000000 0.000000 -3.440385 0.788233 0.501655 -15.928165 -3.167306 2.999704 -6.338817 -0.000001 0.000001 -18.123413 3.648175 -4.905661 -0.000004 -0.000000 -0.000002 -3.031915 17.392170 4.536473 14.365854 27.618189 -50.774582 -179.989944 86.184113 -178.083054 12.260798 1.079210 9.627662 2.243541 -5.255033 -3.180156 14.282875 -0.826594 6.952494 -0.000002 -12.690591 -0.000000 16.207611 -16.687037 2.041656 1.665665 -1.955921 -2.878296 4.727794 -4.170585 4.993919 11.020512 0.000004 -0.000001 12.109032 -3.735708 -2.866779 0.000000 -0.000001 0.000000 1.291984 -1.928548 -1.498088 14.800113 0.567467 3.865602 14.242553 -1.341733 -6.660649 19.631939 0.143926 -0.648244 49.437119 -0.865922 -6.266843 0.353028 -1.511149 -0.031940 20.222769 3.684307 2.316627 18.787243 0.000007 0.000000 10.751610 -0.479866 1.397904 0.000001 0.000000 -0.000000 3.273804 0.305947 -0.580111 21.486790 11.830359 2.266132 8.162916 0.000002 -0.000001 18.399054 -3.798977 -4.940568 0.000002 -0.000001 -0.000002 18.576101 19.210224 -12.441809 -0.233900 -0.685763 36.398346 -19.461361 -1.378009 -18.423874 1.608375 -2.026983 0.442827 0.000000 -0.000000 0.000002 -14.705855 -24.604954 -23.563528 0.505957 0.714154 28.713209 17.471598 12.940631 2.722949 -1.446690 0.745097 0.539694 0.000000 0.000000 -0.000001 
2.470312 92.937668 0.407112 -1.800730 -3.316304 1.106750 1.169043 0.091801 1.966615 0.113784 -0.436993 -4.094354 -0.353587 -2.562723 10.710523 6.576767 -1.105265 15.996245 -2.827962 -8.164897 -3.468032 1.599149 -10.274014 -10.401786 0.000077 -0.000022 0.000006 -0.000477 -0.031438 0.001991 0.729858 -3.773381 -10.662190 -0.739014 3.710918 -10.680354 -0.214392 -10.411241 7.571788 -54.044601 -51.419106 -4.116136 179.543091 -46.216560 179.762405 -11.043709 -5.288958 9.362541 -5.882102 9.861277 0.702592 -10.936862 -0.360573 7.156198 0.000000 8.774814 -0.000001 -16.212954 17.794916 6.221345 -1.844030 2.498502 -2.507276 -10.163589 4.678941 4.621106 -20.975996 -0.000002 0.000002 -21.226254 2.451694 -3.593993 0.000000 -0.000006 -0.000000 -1.362679 2.240797 -0.746323 -21.334892 0.584910 3.008321 -13.821197 -0.000002 0.000002 -23.887129 -0.249077 -0.839481 -60.233303 2.332894 -1.530748 -0.294026 1.679686 0.833255 -14.218192 0.093215 1.300580 -34.212009 -0.287561 0.967168 -20.033182 0.964537 1.212841 0.000001 -0.000000 0.000000 -3.440385 0.788233 0.501656 -15.928167 -3.167306 2.999704 -6.338818 0.000000 0.000001 -18.123413 3.648177 -4.905661 -0.000004 -0.000000 -0.000002 -2.899790 17.289682 4.598188 14.345618 27.755436 -50.639587 179.480194 86.466087 -178.626419 12.390376 0.901871 10.175228 2.243541 -5.255032 -3.180155 14.282877 -0.826594 6.952496 -0.000002 -12.690588 -0.000001 16.203661 -16.683516 2.052087 1.665666 -1.955920 -2.878297 4.727793 -4.170583 4.993918 11.020513 0.000004 -0.000001 12.109033 -3.735710 -2.866780 -0.000000 0.000000 0.000001 1.291985 -1.928549 -1.498086 14.800117 0.567467 3.865602 14.242554 -1.341734 -6.660649 19.631939 0.143926 -0.648244 49.421028 -0.875709 -6.277081 0.353028 -1.511149 -0.031941 20.222771 3.684304 2.316627 18.787245 0.000005 -0.000001 10.751610 -0.479870 1.397904 0.000001 0.000000 -0.000000 3.273806 0.305945 -0.580111 21.486790 11.830360 2.266130 8.162917 0.000002 -0.000001 18.399055 -3.798978 -4.940568 0.000001 -0.000002 -0.000002 18.700806 19.001766 -12.275810 -0.223867 -0.692939 35.905289 -19.531689 -1.428766 -18.134918 1.608462 -2.020503 0.418205 0.000000 -0.000000 0.000002 -14.684233 -24.695667 -23.277397 0.510032 0.706502 28.792709 17.363232 12.850839 2.370598 -1.445094 0.730882 0.556282 0.000000 0.000000 -0.000001 
